<?xml version="1.0" encoding="UTF-8" standalone="no"?>
<!-- Generator: Adobe Illustrator 19.2.1, SVG Export Plug-In . SVG Version: 6.00 Build 0)  -->

<svg
   xmlns:dc="http://purl.org/dc/elements/1.1/"
   xmlns:cc="http://creativecommons.org/ns#"
   xmlns:rdf="http://www.w3.org/1999/02/22-rdf-syntax-ns#"
   xmlns:svg="http://www.w3.org/2000/svg"
   xmlns="http://www.w3.org/2000/svg"
   xmlns:xlink="http://www.w3.org/1999/xlink"
   xmlns:sodipodi="http://sodipodi.sourceforge.net/DTD/sodipodi-0.dtd"
   xmlns:inkscape="http://www.inkscape.org/namespaces/inkscape"
   version="1.1"
   id="Layer_1"
   x="0px"
   y="0px"
   width="4423.1758"
   height="1080"
   viewBox="0 0 4423.1759 1080"
   xml:space="preserve"
   inkscape:version="0.91 r13725"
   sodipodi:docname="many-mountains.svg"><metadata
     id="metadata11"><rdf:RDF><cc:Work
         rdf:about=""><dc:format>image/svg+xml</dc:format><dc:type
           rdf:resource="http://purl.org/dc/dcmitype/StillImage" /><dc:title></dc:title></cc:Work></rdf:RDF></metadata><defs
     id="defs9" /><sodipodi:namedview
     pagecolor="#ffffff"
     bordercolor="#666666"
     borderopacity="1"
     objecttolerance="10"
     gridtolerance="10"
     guidetolerance="10"
     inkscape:pageopacity="0"
     inkscape:pageshadow="2"
     inkscape:window-width="1912"
     inkscape:window-height="1056"
     id="namedview7"
     showgrid="false"
     fit-margin-top="0"
     fit-margin-left="0"
     fit-margin-right="0"
     fit-margin-bottom="0"
     inkscape:zoom="0.28031832"
     inkscape:cx="2340.3719"
     inkscape:cy="1194.4708"
     inkscape:window-x="0"
     inkscape:window-y="16"
     inkscape:window-maximized="0"
     inkscape:current-layer="Layer_1" /><style
     type="text/css"
     id="style3">
	.st0{fill:#D10019;}
</style><g
     id="g4229"
     transform="translate(285.29102,514.07226)"><path
       id="path4192"
       d="m 837.19922,268.19922 -202.49414,297.22851 446.08592,0 -140.19139,-205.62695 -20.5,30.09961 -82.90039,-121.70117 z M 810.90039,328 l 12.29883,0 0,14.30078 14.30078,0 0,12.19922 -14.30078,0 0,14.30078 -12.29883,0 0,-14.30078 -14.30078,0 0,-12.30078 14.30078,0 0,-14.19922 z m 111.19922,73.69922 8.5,0 0,10 10,0 0,8.5 -10,0 0,10 -8.5,0 0,-10 -10,0 0,-8.5 10,0 0,-10 z"
       style="color:#000000;clip-rule:nonzero;display:inline;overflow:visible;visibility:visible;opacity:1;isolation:auto;mix-blend-mode:normal;color-interpolation:sRGB;color-interpolation-filters:linearRGB;solid-color:#000000;solid-opacity:1;fill:#d10019;fill-opacity:1;fill-rule:nonzero;stroke:#b50075;stroke-width:1;stroke-linecap:butt;stroke-linejoin:miter;stroke-miterlimit:4;stroke-dasharray:none;stroke-dashoffset:0;stroke-opacity:1;color-rendering:auto;image-rendering:auto;shape-rendering:auto;text-rendering:auto;enable-background:accumulate"
       inkscape:connector-curvature="0" /><path
       id="path5"
       d="m 277.19922,268.19922 -202.494142,297.22851 446.085942,0 -140.19141,-205.62695 -20.5,30.09961 -82.90039,-121.70117 z M 250.90039,328 l 12.29883,0 0,14.30078 14.30078,0 0,12.19922 -14.30078,0 0,14.30078 -12.29883,0 0,-14.30078 -14.30078,0 0,-12.30078 14.30078,0 0,-14.19922 z m 111.19922,73.69922 8.5,0 0,10 10,0 0,8.5 -10,0 0,10 -8.5,0 0,-10 -10,0 0,-8.5 10,0 0,-10 z"
       style="fill:#d10019"
       inkscape:connector-curvature="0" /><path
       id="use4139"
       d="m 547.19922,324.19922 -164.34375,241.22851 369.75586,0 -102.01172,-149.62695 -20.5,30.09961 -82.90039,-121.70117 z M 520.90039,384 l 12.29883,0 0,14.30078 14.30078,0 0,12.19922 -14.30078,0 0,14.30078 -12.29883,0 0,-14.30078 -14.30078,0 0,-12.30078 14.30078,0 0,-14.19922 z m 111.19922,73.69922 8.5,0 0,10 10,0 0,8.5 -10,0 0,10 -8.5,0 0,-10 -10,0 0,-8.5 10,0 0,-10 z"
       style="fill:#d10019"
       inkscape:connector-curvature="0" /><path
       id="use4141"
       d="m 135.19922,328.19922 -161.619142,237.22851 364.304692,0 -99.28516,-145.62695 -20.5,30.09961 -82.90039,-121.70117 z M 108.90039,388 l 12.29883,0 0,14.30078 14.30078,0 0,12.19922 -14.30078,0 0,14.30078 -12.29883,0 0,-14.30078 -14.300781,0 0,-12.30078 14.300781,0 0,-14.19922 z m 111.19922,73.69922 8.5,0 0,10 10,0 0,8.5 -10,0 0,10 -8.5,0 0,-10 -10,0 0,-8.5 10,0 0,-10 z"
       style="fill:#d10019"
       inkscape:connector-curvature="0" /><path
       id="use4145"
       d="m -41.699219,268.19922 -82.900391,121.70117 -20.5,-30.09961 -140.19141,205.62695 446.08594,0 -202.494139,-297.22851 z m 14,59.80078 12.298828,0 0,14.19922 14.3007816,0 0,12.30078 -14.3007816,0 0,14.30078 -12.298828,0 0,-14.30078 -14.300781,0 0,-12.19922 14.300781,0 0,-14.30078 z m -107.400391,73.69922 8.5,0 0,10 10,0 0,8.5 -10,0 0,10 -8.5,0 0,-10 -10,0 0,-8.5 10,0 0,-10 z"
       style="fill:#d10019"
       inkscape:connector-curvature="0" /><path
       id="use4149"
       d="m 1095.1992,328.19922 -161.61912,237.22851 364.30472,0 -99.2852,-145.62695 -20.5,30.09961 -82.9004,-121.70117 z M 1068.9004,388 l 12.2988,0 0,14.30078 14.3008,0 0,12.19922 -14.3008,0 0,14.30078 -12.2988,0 0,-14.30078 -14.3008,0 0,-12.30078 14.3008,0 0,-14.19922 z m 111.1992,73.69922 8.5,0 0,10 10,0 0,8.5 -10,0 0,10 -8.5,0 0,-10 -10,0 0,-8.5 10,0 0,-10 z"
       style="fill:#d10019"
       inkscape:connector-curvature="0" /></g><use
     x="0"
     y="0"
     xlink:href="#g4229"
     id="use4237"
     transform="translate(1460,2.3339844e-6)"
     width="100%"
     height="100%" /><use
     x="0"
     y="0"
     xlink:href="#g4229"
     id="use4239"
     transform="translate(2840,2.3339844e-6)"
     width="100%"
     height="100%" /></svg>